<?xml version="1.0" encoding="utf-8"?>
<!-- Generator: Adobe Illustrator 27.5.0, SVG Export Plug-In . SVG Version: 6.00 Build 0)  -->
<svg version="1.1" xmlns="http://www.w3.org/2000/svg" xmlns:xlink="http://www.w3.org/1999/xlink" x="0px" y="0px"
	 viewBox="0 0 750 500" style="enable-background:new 0 0 750 500;" xml:space="preserve">
<g id="BACKGROUND">
	<rect style="fill:#24003A;" width="750" height="500"/>
</g>
<g id="OBJECTS">
	<g>
		<defs>
			<rect id="SVGID_1_" width="750" height="500"/>
		</defs>
		<clipPath id="SVGID_00000111165579612202595150000004730737956064074882_">
			<use xlink:href="#SVGID_1_"  style="overflow:visible;"/>
		</clipPath>
		
			<linearGradient id="SVGID_00000039851537289619457590000009426590275085031344_" gradientUnits="userSpaceOnUse" x1="-34.0541" y1="362.9094" x2="265.9808" y2="362.9094">
			<stop  offset="0" style="stop-color:#FF1E61;stop-opacity:0"/>
			<stop  offset="1" style="stop-color:#FF1E61"/>
		</linearGradient>
		
			<path style="clip-path:url(#SVGID_00000111165579612202595150000004730737956064074882_);fill:url(#SVGID_00000039851537289619457590000009426590275085031344_);" d="
			M247.708,450.927c-28.15-12.355-61.939,4.518-91.722,0.57c-26.266-3.483-41.326-22.558-46.546-47.615
			c-7.213-34.625,0.48-70.089-5.17-104.866c-6.311-38.842-29.552-70.854-66.726-85.328c-22.755-8.86-47.48-10.319-71.598-7.193
			v314.33h291.358c10.107-16.511,12.258-44.467,1.765-60.197C256.349,456.55,252.689,453.114,247.708,450.927z"/>
		
			<linearGradient id="SVGID_00000029038801824231741530000018367645078845933723_" gradientUnits="userSpaceOnUse" x1="-67.5012" y1="338.5369" x2="288.7255" y2="338.5369">
			<stop  offset="0" style="stop-color:#FF1E61;stop-opacity:0"/>
			<stop  offset="1" style="stop-color:#FF1E61"/>
		</linearGradient>
		
			<path style="clip-path:url(#SVGID_00000111165579612202595150000004730737956064074882_);fill:none;stroke:url(#SVGID_00000029038801824231741530000018367645078845933723_);stroke-width:0.7703;stroke-miterlimit:10;" d="
			M270.537,444.014c-26.648-19.698-74.226,5.415-109.916,0.683c-31.477-4.173-49.524-27.033-55.779-57.06
			c-8.644-41.493,0.576-83.992-6.196-125.667c-7.563-46.547-35.414-84.909-79.962-102.254
			c-27.268-10.617-56.899-12.366-85.801-8.619v376.682h347.248C288.164,507.774,297.185,463.712,270.537,444.014z"/>
		
			<linearGradient id="SVGID_00000170256010273681324520000011907777945299314097_" gradientUnits="userSpaceOnUse" x1="489.7886" y1="185.9072" x2="720.855" y2="77.595">
			<stop  offset="0" style="stop-color:#FF1E61;stop-opacity:0"/>
			<stop  offset="1" style="stop-color:#FF1E61"/>
		</linearGradient>
		
			<path style="clip-path:url(#SVGID_00000111165579612202595150000004730737956064074882_);fill:url(#SVGID_00000170256010273681324520000011907777945299314097_);" d="
			M402.024-1.323c14.824,3.506,36.534,17.673,59.588,45.548s30.69,68.494,39.197,120.718c2.426,14.892,8.616,42.849,28.752,44.456
			c17.412,1.39,34.811-13.183,49.469-19.761c13.042-5.853,29.35-13.659,43.546-6.47c17.152,8.687,22.864,28.026,30.244,43.603
			c14.048,29.65,37.395,50.853,70.721,59.893c8.465,2.296,17.995,4.196,27.697,5.059V-1.323H402.024z"/>
		
			<linearGradient id="SVGID_00000027584515959122595830000005607696327968334995_" gradientUnits="userSpaceOnUse" x1="448.9041" y1="209.2119" x2="657.1558" y2="111.594">
			<stop  offset="0" style="stop-color:#FF1E61;stop-opacity:0"/>
			<stop  offset="1" style="stop-color:#FF1E61"/>
		</linearGradient>
		
			<path style="clip-path:url(#SVGID_00000111165579612202595150000004730737956064074882_);fill:none;stroke:url(#SVGID_00000027584515959122595830000005607696327968334995_);stroke-width:0.8822;stroke-miterlimit:10;" d="
			M347.846-6.838c41.912,0.756,80.829,28.065,99.182,48.406c26.571,29.45,36.742,95.022,44.155,150.925
			c4.322,32.591,9.187,45.687,30.656,47.4c18.565,1.482,37.117-14.056,52.745-21.07c13.906-6.241,31.294-14.564,46.43-6.898
			c18.288,9.262,24.378,29.882,32.247,46.49c14.978,31.614,39.871,54.22,75.404,63.859c9.026,2.448,19.186,4.474,29.531,5.394"/>
		
			<linearGradient id="SVGID_00000085955570104216401990000012906448495794159800_" gradientUnits="userSpaceOnUse" x1="420.6869" y1="255.9519" x2="205.0165" y2="-132.2549">
			<stop  offset="0" style="stop-color:#FF1E61"/>
			<stop  offset="1" style="stop-color:#FF1E61;stop-opacity:0"/>
		</linearGradient>
		
			<path style="clip-path:url(#SVGID_00000111165579612202595150000004730737956064074882_);fill:url(#SVGID_00000085955570104216401990000012906448495794159800_);" d="
			M-34.48-29.036v354.308c25.606,29.44,102.586,28.145,149.728-12.078C233.799,212.041,151.826,68.625,257.669,25.589
			c107.582-43.743,213.977,111.028,364.433,115.799c48.714,1.545,105.386-21.872,133.936-62.49V-29.036H-34.48z"/>
		
			<linearGradient id="SVGID_00000045603822027147829320000009363834761097461942_" gradientUnits="userSpaceOnUse" x1="575.3893" y1="74.4178" x2="562.9243" y2="-16.3271">
			<stop  offset="0" style="stop-color:#A60082"/>
			<stop  offset="1" style="stop-color:#46005B"/>
		</linearGradient>
		
			<path style="clip-path:url(#SVGID_00000111165579612202595150000004730737956064074882_);fill:url(#SVGID_00000045603822027147829320000009363834761097461942_);" d="
			M714.773-4.201H414.407c31.762,14.655,69.272,38.891,138.19,63.862C653.49,96.217,718.693,50.809,714.773-4.201z"/>
		
			<linearGradient id="SVGID_00000140699376378918288260000002235391503435646851_" gradientUnits="userSpaceOnUse" x1="128.2949" y1="242.6577" x2="55.4692" y2="15.4412">
			<stop  offset="0" style="stop-color:#A60082"/>
			<stop  offset="1" style="stop-color:#46005B"/>
		</linearGradient>
		
			<path style="clip-path:url(#SVGID_00000111165579612202595150000004730737956064074882_);fill:url(#SVGID_00000140699376378918288260000002235391503435646851_);" d="
			M59.804,279.767c46.592-15.266,62.814-61.903,73.966-144.025c10.208-75.171,28.36-117.66,59.562-138.674H-4.21V277.75
			C15.214,287.661,37.842,286.963,59.804,279.767z"/>
		<path style="clip-path:url(#SVGID_00000111165579612202595150000004730737956064074882_);fill:#FFD060;" d="M60.134,186.757
			c20.658-30.126-0.43-75.745-14.202-105.441C33.36,54.209,29.406,19.221,43.542-1.732H-2.488v208.385
			C18.285,214.73,43.239,211.396,60.134,186.757z"/>
		<path style="clip-path:url(#SVGID_00000111165579612202595150000004730737956064074882_);fill:#FFD060;" d="M708.982,169.742
			c-2.081,23.371,9.808,35.565,17.924,47.323c5.141,7.449,11.008,15.373,11.203,25.162c0.242,12.187-8.02,24.727-11.703,35.633
			c-4.618,13.672-6.602,31.431,3.084,41.933c5.408,5.864,15.174,9.1,24.14,8.018V126.44
			C727.134,129.075,710.895,148.257,708.982,169.742z"/>
		
			<linearGradient id="SVGID_00000125568764966420780350000005828135652969499303_" gradientUnits="userSpaceOnUse" x1="34.4103" y1="482.4999" x2="29.2585" y2="476.6684" gradientTransform="matrix(0.9934 0.1148 -0.1148 0.9934 154.7834 -10.633)">
			<stop  offset="0" style="stop-color:#FF1E61"/>
			<stop  offset="1" style="stop-color:#C11E6A"/>
		</linearGradient>
		
			<path style="clip-path:url(#SVGID_00000111165579612202595150000004730737956064074882_);fill:url(#SVGID_00000125568764966420780350000005828135652969499303_);" d="
			M142.124,472.025c-0.623,5.389-5.497,9.253-10.886,8.63c-5.389-0.623-9.253-5.497-8.63-10.886
			c0.623-5.389,5.497-9.253,10.886-8.63C138.883,461.762,142.747,466.636,142.124,472.025z"/>
		
			<linearGradient id="SVGID_00000000205602370552082300000000281085791706615947_" gradientUnits="userSpaceOnUse" x1="645.0557" y1="68.0423" x2="512.559" y2="-81.9368">
			<stop  offset="0" style="stop-color:#FF1E61"/>
			<stop  offset="1" style="stop-color:#C11E6A"/>
		</linearGradient>
		
			<path style="clip-path:url(#SVGID_00000111165579612202595150000004730737956064074882_);fill:none;stroke:url(#SVGID_00000000205602370552082300000000281085791706615947_);stroke-width:0.7514;stroke-miterlimit:10;" d="
			M440.575-18.242c0,0,99.801,74.758,174.365,74.924c68.69,0.153,91.582-42.593,82.281-74.81"/>
		
			<linearGradient id="SVGID_00000042720500853082746050000009553792534843697548_" gradientUnits="userSpaceOnUse" x1="132.7883" y1="195.541" x2="32.1773" y2="81.6549">
			<stop  offset="0" style="stop-color:#FF1E61"/>
			<stop  offset="1" style="stop-color:#C11E6A"/>
		</linearGradient>
		
			<path style="clip-path:url(#SVGID_00000111165579612202595150000004730737956064074882_);fill:none;stroke:url(#SVGID_00000042720500853082746050000009553792534843697548_);stroke-width:0.821;stroke-miterlimit:10;" d="
			M-23.516,242.381c0,0,33.204,37.025,80.247,15.856c47.043-21.169,46.193-82.919,47.631-139.953
			c1.764-69.976,11.761-105.846,39.398-134.66"/>
		<path style="clip-path:url(#SVGID_00000111165579612202595150000004730737956064074882_);fill:#FFD060;" d="M612.699,35.324
			c45.238,0.59,55.865-25.232,50.186-39.526H493.998C528.419,8.843,569.784,34.764,612.699,35.324z"/>
		
			<linearGradient id="SVGID_00000145048111785945154770000016272899061682165685_" gradientUnits="userSpaceOnUse" x1="596.9396" y1="69.3841" x2="584.6533" y2="-20.06">
			<stop  offset="0" style="stop-color:#FF1E61"/>
			<stop  offset="1" style="stop-color:#C11E6A"/>
		</linearGradient>
		
			<path style="clip-path:url(#SVGID_00000111165579612202595150000004730737956064074882_);fill:url(#SVGID_00000145048111785945154770000016272899061682165685_);" d="
			M618.522,35.324c42.169,0.59,52.075-25.232,46.781-39.526H507.875C539.961,8.843,578.52,34.764,618.522,35.324z"/>
		
			<linearGradient id="SVGID_00000183245766991663018860000006651178335998291608_" gradientUnits="userSpaceOnUse" x1="39.4618" y1="85.4124" x2="-40.9953" y2="27.943">
			<stop  offset="0" style="stop-color:#FF1E61"/>
			<stop  offset="1" style="stop-color:#C11E6A"/>
		</linearGradient>
		
			<path style="clip-path:url(#SVGID_00000111165579612202595150000004730737956064074882_);fill:url(#SVGID_00000183245766991663018860000006651178335998291608_);" d="
			M39.802,183.911c23.788-14.726,24.638-37.948,12.744-72.215C44.063,87.259,32.24,61.415,42.917,43.73
			c9.062-15.009,24.638-11.894,40.214-25.204C90.352,12.355,93.61,5.225,94.742-1.732h-97.23v183.812
			C10.175,188.703,26.124,192.379,39.802,183.911z"/>
		<path style="clip-path:url(#SVGID_00000111165579612202595150000004730737956064074882_);fill:#FFD060;" d="M167.082,80.119
			c0,3.137-2.543,5.68-5.68,5.68c-3.137,0-5.68-2.543-5.68-5.68c0-3.137,2.543-5.68,5.68-5.68
			C164.539,74.438,167.082,76.981,167.082,80.119z"/>
		
			<linearGradient id="SVGID_00000020376314926077363510000000689536488997644683_" gradientUnits="userSpaceOnUse" x1="537.2151" y1="99.929" x2="534.6353" y2="81.1483" gradientTransform="matrix(0.9842 0.177 -0.177 0.9842 181.2135 -110.519)">
			<stop  offset="0" style="stop-color:#8E0082"/>
			<stop  offset="1" style="stop-color:#5B0082"/>
		</linearGradient>
		
			<path style="clip-path:url(#SVGID_00000111165579612202595150000004730737956064074882_);fill:none;stroke:url(#SVGID_00000020376314926077363510000000689536488997644683_);stroke-width:3;stroke-miterlimit:10;" d="
			M700.497,74.86c-0.78,4.336-4.927,7.219-9.263,6.439c-4.336-0.78-7.219-4.927-6.439-9.264c0.78-4.336,4.927-7.219,9.263-6.439
			C698.394,66.376,701.277,70.524,700.497,74.86z"/>
		<g style="clip-path:url(#SVGID_00000111165579612202595150000004730737956064074882_);">
			
				<rect x="76.849" y="116.15" transform="matrix(0.7976 0.6032 -0.6032 0.7976 88.6472 -22.587)" style="fill:#FFFFFF;" width="2.265" height="9.312"/>
			
				<rect x="76.849" y="116.15" transform="matrix(-0.6032 0.7976 -0.7976 -0.6032 221.3749 131.4712)" style="fill:#FFFFFF;" width="2.265" height="9.312"/>
		</g>
		<g style="clip-path:url(#SVGID_00000111165579612202595150000004730737956064074882_);">
			
				<rect x="470.271" y="39.456" transform="matrix(0.3629 0.9318 -0.9318 0.3629 342.6339 -410.7159)" style="fill:#FFFFFF;" width="2.798" height="11.501"/>
			
				<rect x="470.271" y="39.456" transform="matrix(-0.9318 0.3629 -0.3629 -0.9318 927.5963 -83.8135)" style="fill:#FFFFFF;" width="2.798" height="11.501"/>
		</g>
		<g style="clip-path:url(#SVGID_00000111165579612202595150000004730737956064074882_);">
			
				<rect x="67.208" y="462.324" transform="matrix(0.0554 0.9985 -0.9985 0.0554 533.2562 374.2765)" style="fill:#FFFFFF;" width="3.23" height="13.28"/>
			
				<rect x="67.208" y="462.324" transform="matrix(-0.9985 0.0554 -0.0554 -0.9985 163.5115 933.3977)" style="fill:#FFFFFF;" width="3.23" height="13.28"/>
		</g>
		<g style="clip-path:url(#SVGID_00000111165579612202595150000004730737956064074882_);">
			
				<rect x="704.714" y="421.545" transform="matrix(0.0554 0.9985 -0.9985 0.0554 1092.2177 -302.2146)" style="fill:#FFFFFF;" width="2.232" height="9.175"/>
			
				<rect x="704.714" y="421.545" transform="matrix(-0.9985 0.0554 -0.0554 -0.9985 1434.1948 812.4875)" style="fill:#FFFFFF;" width="2.232" height="9.175"/>
		</g>
		<g style="clip-path:url(#SVGID_00000111165579612202595150000004730737956064074882_);">
			
				<rect x="169.991" y="48.824" transform="matrix(0.549 0.8358 -0.8358 0.549 120.5453 -119.2548)" style="fill:#FFFFFF;" width="1.584" height="6.511"/>
			
				<rect x="169.992" y="48.824" transform="matrix(-0.8358 0.5491 -0.5491 -0.8358 342.1158 1.8353)" style="fill:#FFFFFF;" width="1.584" height="6.511"/>
		</g>
		
			<linearGradient id="SVGID_00000079486399783590526060000001318442577927332754_" gradientUnits="userSpaceOnUse" x1="52.4033" y1="76.7275" x2="74.8238" y2="76.7275">
			<stop  offset="0" style="stop-color:#FF1E61"/>
			<stop  offset="1" style="stop-color:#C11E6A"/>
		</linearGradient>
		
			<ellipse transform="matrix(0.7071 -0.7071 0.7071 0.7071 -35.6226 67.4545)" style="clip-path:url(#SVGID_00000111165579612202595150000004730737956064074882_);fill:none;stroke:url(#SVGID_00000079486399783590526060000001318442577927332754_);stroke-width:1.7884;stroke-miterlimit:10;" cx="63.614" cy="76.728" rx="10.316" ry="10.316"/>
		
			<linearGradient id="SVGID_00000132075427824710774200000013182397933181957033_" gradientUnits="userSpaceOnUse" x1="45.0229" y1="322.5912" x2="42.4155" y2="303.61">
			<stop  offset="0" style="stop-color:#8E0082"/>
			<stop  offset="1" style="stop-color:#5B0082"/>
		</linearGradient>
		
			<circle style="clip-path:url(#SVGID_00000111165579612202595150000004730737956064074882_);fill:none;stroke:url(#SVGID_00000132075427824710774200000013182397933181957033_);stroke-width:3.9837;stroke-miterlimit:10;" cx="43.719" cy="313.101" r="7.587"/>
		<path style="clip-path:url(#SVGID_00000111165579612202595150000004730737956064074882_);fill:#FFD060;" d="M727.902,237.19
			c0,2.801-1.992,5.071-4.45,5.071c-2.458,0-4.45-2.271-4.45-5.071c0-2.801,1.992-5.072,4.45-5.072
			C725.91,232.118,727.902,234.389,727.902,237.19z"/>
		
			<linearGradient id="SVGID_00000024706999926673890210000006828237272460991123_" gradientUnits="userSpaceOnUse" x1="372.776" y1="475.9974" x2="367.0219" y2="469.4841">
			<stop  offset="0" style="stop-color:#FF1E61"/>
			<stop  offset="1" style="stop-color:#C11E6A"/>
		</linearGradient>
		
			<circle style="clip-path:url(#SVGID_00000111165579612202595150000004730737956064074882_);fill:url(#SVGID_00000024706999926673890210000006828237272460991123_);" cx="371.212" cy="474.227" r="10.971"/>
		
			<linearGradient id="SVGID_00000147928707275613714550000015847715184652764553_" gradientUnits="userSpaceOnUse" x1="369.7481" y1="450.8688" x2="368.4055" y2="449.3491">
			<stop  offset="0" style="stop-color:#FF1E61"/>
			<stop  offset="1" style="stop-color:#C11E6A"/>
		</linearGradient>
		
			<path style="clip-path:url(#SVGID_00000111165579612202595150000004730737956064074882_);fill:url(#SVGID_00000147928707275613714550000015847715184652764553_);" d="
			M371.943,450.456c0,1.414-1.146,2.56-2.56,2.56s-2.56-1.146-2.56-2.56s1.146-2.56,2.56-2.56S371.943,449.042,371.943,450.456z"/>
		
			<linearGradient id="SVGID_00000042733377841840276940000011943675556791738496_" gradientUnits="userSpaceOnUse" x1="637.8339" y1="258.1549" x2="634.5732" y2="254.464">
			<stop  offset="0" style="stop-color:#FF1E61"/>
			<stop  offset="1" style="stop-color:#C11E6A"/>
		</linearGradient>
		
			<circle style="clip-path:url(#SVGID_00000111165579612202595150000004730737956064074882_);fill:url(#SVGID_00000042733377841840276940000011943675556791738496_);" cx="636.947" cy="257.151" r="6.217"/>
		
			<linearGradient id="SVGID_00000057148659975949223390000000242768711527105721_" gradientUnits="userSpaceOnUse" x1="495.6286" y1="470.8863" x2="750" y2="470.8863">
			<stop  offset="0" style="stop-color:#FF1E61"/>
			<stop  offset="1" style="stop-color:#FF1E61;stop-opacity:0"/>
		</linearGradient>
		
			<path style="clip-path:url(#SVGID_00000111165579612202595150000004730737956064074882_);fill:url(#SVGID_00000057148659975949223390000000242768711527105721_);" d="
			M703.713,453.061c-26.433,14.107-50.247,32.548-81.825,29.415c-26.413-2.621-49.11-27.686-76.518-20.013
			c-17.949,5.025-36.708,20.317-49.742,37.537H750v-54.499c-1.27-0.725-2.573-1.386-3.934-1.926
			C732.048,438.01,715.985,446.51,703.713,453.061z"/>
		
			<ellipse transform="matrix(0.7071 -0.7071 0.7071 0.7071 -137.3399 555.9366)" style="clip-path:url(#SVGID_00000111165579612202595150000004730737956064074882_);fill:none;stroke:#FFFFFF;stroke-width:2;stroke-miterlimit:10;" cx="602.405" cy="443.752" rx="15.8" ry="15.8"/>
		<path style="clip-path:url(#SVGID_00000111165579612202595150000004730737956064074882_);fill:#FFFFFF;" d="M569.465,450.091
			c0,1.744-1.414,3.158-3.158,3.158c-1.744,0-3.158-1.414-3.158-3.158c0-1.744,1.414-3.158,3.158-3.158
			C568.051,446.934,569.465,448.347,569.465,450.091z"/>
		
			<ellipse transform="matrix(0.7071 -0.7071 0.7071 0.7071 -187.8235 141.7669)" style="clip-path:url(#SVGID_00000111165579612202595150000004730737956064074882_);fill:none;stroke:#FFFFFF;stroke-width:2;stroke-miterlimit:10;" cx="77.216" cy="297.607" rx="12.873" ry="12.873"/>
		<path style="clip-path:url(#SVGID_00000111165579612202595150000004730737956064074882_);fill:#FFD060;" d="M301.017,492.307
			c-11.312-3.382-26.794,4.763-38.207,0.681c-19.154-6.85-20.392-26.213-47.027-25.843c-33.804,0.47-58.789,22.232-88.257,34.669
			h183.474C309.715,497.509,306.959,494.084,301.017,492.307z"/>
	</g>
</g>
</svg>
